<svg xmlns="http://www.w3.org/2000/svg" xmlns:xlink="http://www.w3.org/1999/xlink" width="144" zoomAndPan="magnify" viewBox="0 0 108 90.749999" height="121" preserveAspectRatio="xMidYMid meet" version="1.0"><defs><clipPath id="f127021f0e"><path d="M 0.148438 0 L 107.851562 0 L 107.851562 90.5 L 0.148438 90.5 Z M 0.148438 0 " clip-rule="nonzero"/></clipPath><clipPath id="d28e5895fa"><path d="M 10.660156 1.914062 L 97.421875 1.914062 L 97.421875 88.671875 L 10.660156 88.671875 Z M 10.660156 1.914062 " clip-rule="nonzero"/></clipPath><clipPath id="e429348dcb"><path d="M 11 2 L 97 2 L 97 88.671875 L 11 88.671875 Z M 11 2 " clip-rule="nonzero"/></clipPath><clipPath id="dca848a244"><path d="M 29.105469 20.355469 L 79.21875 20.355469 L 79.21875 70.46875 L 29.105469 70.46875 Z M 29.105469 20.355469 " clip-rule="nonzero"/></clipPath></defs><g clip-path="url(#f127021f0e)"><path fill="#ffffff" d="M 0.148438 0 L 107.851562 0 L 107.851562 97.230469 L 0.148438 97.230469 Z M 0.148438 0 " fill-opacity="1" fill-rule="nonzero"/><path fill="#ffffff" d="M 0.148438 0 L 107.851562 0 L 107.851562 90.5 L 0.148438 90.5 Z M 0.148438 0 " fill-opacity="1" fill-rule="nonzero"/><path fill="#000000" d="M 0.148438 0 L 107.851562 0 L 107.851562 90.5 L 0.148438 90.5 Z M 0.148438 0 " fill-opacity="1" fill-rule="nonzero"/></g><g clip-path="url(#d28e5895fa)"><path fill="#000000" d="M 54.050781 86.628906 C 31.246094 86.628906 12.699219 68.078125 12.699219 45.277344 C 12.699219 22.472656 31.246094 3.925781 54.050781 3.925781 C 76.851562 3.925781 95.402344 22.472656 95.402344 45.277344 C 95.402344 68.078125 76.851562 86.628906 54.050781 86.628906 Z M 54.050781 1.902344 C 30.132812 1.902344 10.675781 21.359375 10.675781 45.277344 C 10.675781 69.195312 30.132812 88.652344 54.050781 88.652344 C 77.964844 88.652344 97.421875 69.195312 97.421875 45.277344 C 97.421875 21.359375 77.964844 1.902344 54.050781 1.902344 " fill-opacity="1" fill-rule="nonzero"/></g><g clip-path="url(#e429348dcb)"><path fill="#000000" d="M 54.050781 3.347656 C 30.929688 3.347656 12.121094 22.15625 12.121094 45.277344 C 12.121094 68.394531 30.929688 87.207031 54.050781 87.207031 C 77.167969 87.207031 95.980469 68.394531 95.980469 45.277344 C 95.980469 22.15625 77.167969 3.347656 54.050781 3.347656 Z M 54.050781 88.074219 C 30.453125 88.074219 11.25 68.875 11.25 45.277344 C 11.25 21.675781 30.453125 2.480469 54.050781 2.480469 C 77.648438 2.480469 96.847656 21.675781 96.847656 45.277344 C 96.847656 68.875 77.648438 88.074219 54.050781 88.074219 " fill-opacity="1" fill-rule="nonzero"/></g><g clip-path="url(#dca848a244)"><path fill="#000000" d="M 79.160156 48.164062 C 79.28125 47.800781 79.230469 47.457031 79.019531 47.136719 L 74.246094 39.980469 C 74.234375 39.957031 74.203125 39.953125 74.191406 39.933594 C 74.0625 39.757812 73.898438 39.628906 73.699219 39.542969 C 73.6875 39.539062 73.683594 39.527344 73.671875 39.523438 L 66.515625 36.839844 C 66.367188 36.785156 66.214844 36.757812 66.054688 36.765625 C 65.898438 36.769531 65.746094 36.804688 65.601562 36.871094 C 65.460938 36.9375 65.335938 37.027344 65.226562 37.144531 C 65.117188 37.257812 65.035156 37.390625 64.980469 37.539062 C 64.925781 37.6875 64.902344 37.839844 64.90625 37.996094 C 64.910156 38.15625 64.945312 38.304688 65.011719 38.449219 C 65.078125 38.59375 65.167969 38.71875 65.28125 38.828125 C 65.394531 38.933594 65.527344 39.015625 65.675781 39.074219 L 69.855469 40.640625 L 54.164062 46.523438 L 38.472656 40.640625 L 41.855469 39.371094 C 42.003906 39.316406 42.136719 39.234375 42.25 39.125 C 42.363281 39.015625 42.457031 38.890625 42.519531 38.746094 C 42.585938 38.605469 42.621094 38.453125 42.625 38.296875 C 42.628906 38.136719 42.605469 37.984375 42.550781 37.835938 C 42.496094 37.6875 42.414062 37.558594 42.304688 37.441406 C 42.199219 37.328125 42.070312 37.234375 41.929688 37.171875 C 41.785156 37.105469 41.632812 37.070312 41.476562 37.0625 C 41.316406 37.058594 41.164062 37.082031 41.015625 37.136719 L 34.652344 39.523438 C 34.644531 39.527344 34.636719 39.539062 34.628906 39.542969 C 34.425781 39.628906 34.261719 39.757812 34.136719 39.933594 C 34.121094 39.953125 34.09375 39.957031 34.078125 39.980469 L 29.308594 47.136719 C 29.207031 47.289062 29.144531 47.457031 29.117188 47.636719 C 29.09375 47.816406 29.109375 47.992188 29.164062 48.164062 C 29.222656 48.339844 29.3125 48.492188 29.4375 48.621094 C 29.5625 48.753906 29.710938 48.851562 29.878906 48.917969 L 33.878906 50.417969 L 33.878906 58.808594 C 33.882812 59.417969 33.972656 60.011719 34.15625 60.589844 C 34.339844 61.167969 34.601562 61.707031 34.949219 62.203125 C 35.292969 62.703125 35.703125 63.140625 36.183594 63.511719 C 36.660156 63.886719 37.183594 64.179688 37.75 64.394531 L 53.742188 70.394531 C 54.023438 70.496094 54.304688 70.496094 54.582031 70.394531 L 70.574219 64.394531 C 71.144531 64.179688 71.664062 63.886719 72.144531 63.511719 C 72.621094 63.140625 73.03125 62.703125 73.378906 62.203125 C 73.722656 61.707031 73.988281 61.167969 74.171875 60.589844 C 74.351562 60.011719 74.445312 59.417969 74.445312 58.808594 L 74.445312 50.417969 L 78.445312 48.917969 C 78.804688 48.78125 79.042969 48.53125 79.160156 48.164062 Z M 32.128906 47.210938 L 35.539062 42.089844 L 52.335938 48.390625 L 48.921875 53.507812 Z M 52.96875 67.554688 L 38.589844 62.160156 C 38.25 62.03125 37.933594 61.855469 37.648438 61.632812 C 37.363281 61.40625 37.113281 61.144531 36.90625 60.847656 C 36.699219 60.546875 36.542969 60.226562 36.433594 59.878906 C 36.324219 59.53125 36.265625 59.175781 36.265625 58.808594 L 36.265625 51.3125 L 48.972656 56.074219 C 49.230469 56.171875 49.492188 56.179688 49.757812 56.09375 C 50.019531 56.007812 50.230469 55.851562 50.382812 55.621094 L 52.96875 51.738281 Z M 72.058594 58.808594 C 72.058594 59.175781 72.003906 59.53125 71.894531 59.878906 C 71.785156 60.226562 71.625 60.546875 71.417969 60.847656 C 71.210938 61.144531 70.964844 61.40625 70.675781 61.632812 C 70.390625 61.855469 70.078125 62.03125 69.738281 62.160156 L 55.355469 67.554688 L 55.355469 51.738281 L 57.941406 55.621094 C 58.097656 55.851562 58.304688 56.007812 58.570312 56.09375 C 58.832031 56.179688 59.09375 56.171875 59.355469 56.074219 L 72.058594 51.3125 Z M 59.402344 53.507812 L 55.988281 48.390625 L 72.785156 42.089844 L 76.199219 47.210938 Z M 54.164062 34.675781 C 54.003906 34.675781 53.851562 34.644531 53.707031 34.585938 C 53.558594 34.523438 53.429688 34.4375 53.320312 34.324219 C 53.207031 34.214844 53.121094 34.085938 53.058594 33.9375 C 53 33.792969 52.96875 33.640625 52.96875 33.480469 L 52.96875 21.550781 C 52.96875 21.390625 53 21.238281 53.0625 21.09375 C 53.121094 20.949219 53.207031 20.820312 53.320312 20.707031 C 53.429688 20.59375 53.558594 20.507812 53.707031 20.449219 C 53.851562 20.386719 54.003906 20.355469 54.164062 20.355469 C 54.320312 20.355469 54.472656 20.386719 54.621094 20.449219 C 54.765625 20.507812 54.894531 20.59375 55.007812 20.707031 C 55.117188 20.820312 55.203125 20.949219 55.265625 21.09375 C 55.324219 21.238281 55.355469 21.390625 55.355469 21.550781 L 55.355469 33.480469 C 55.355469 33.640625 55.324219 33.792969 55.265625 33.9375 C 55.203125 34.085938 55.117188 34.214844 55.007812 34.324219 C 54.894531 34.4375 54.765625 34.523438 54.621094 34.585938 C 54.472656 34.644531 54.320312 34.675781 54.164062 34.675781 Z M 46.160156 36.710938 L 39 29.554688 C 38.894531 29.441406 38.808594 29.3125 38.75 29.167969 C 38.695312 29.019531 38.664062 28.871094 38.667969 28.714844 C 38.667969 28.558594 38.699219 28.40625 38.757812 28.261719 C 38.820312 28.117188 38.90625 27.992188 39.015625 27.878906 C 39.125 27.769531 39.253906 27.683594 39.398438 27.625 C 39.542969 27.5625 39.691406 27.53125 39.847656 27.53125 C 40.007812 27.53125 40.15625 27.558594 40.300781 27.617188 C 40.449219 27.675781 40.578125 27.757812 40.6875 27.867188 L 47.847656 35.023438 C 47.960938 35.136719 48.050781 35.265625 48.113281 35.410156 C 48.179688 35.558594 48.210938 35.710938 48.210938 35.871094 C 48.214844 36.03125 48.183594 36.1875 48.125 36.335938 C 48.0625 36.484375 47.976562 36.613281 47.863281 36.726562 C 47.75 36.839844 47.617188 36.925781 47.46875 36.988281 C 47.324219 37.046875 47.167969 37.078125 47.007812 37.074219 C 46.847656 37.074219 46.695312 37.042969 46.546875 36.980469 C 46.402344 36.917969 46.273438 36.828125 46.160156 36.710938 Z M 61.320312 37.0625 C 61.082031 37.0625 60.859375 36.996094 60.660156 36.859375 C 60.457031 36.726562 60.3125 36.546875 60.21875 36.324219 C 60.128906 36.101562 60.105469 35.871094 60.152344 35.636719 C 60.199219 35.398438 60.308594 35.195312 60.476562 35.023438 L 67.636719 27.867188 C 67.75 27.757812 67.878906 27.671875 68.023438 27.617188 C 68.167969 27.558594 68.320312 27.53125 68.476562 27.53125 C 68.632812 27.53125 68.78125 27.5625 68.925781 27.625 C 69.070312 27.683594 69.199219 27.769531 69.308594 27.878906 C 69.421875 27.992188 69.503906 28.117188 69.566406 28.261719 C 69.625 28.40625 69.65625 28.558594 69.660156 28.714844 C 69.660156 28.871094 69.632812 29.019531 69.574219 29.167969 C 69.515625 29.3125 69.433594 29.441406 69.324219 29.554688 L 62.164062 36.710938 C 61.933594 36.945312 61.652344 37.0625 61.320312 37.0625 Z M 61.320312 37.0625 " fill-opacity="1" fill-rule="nonzero"/></g></svg>